<!-- <svg xmlns="http://www.w3.org/2000/svg" width="1604.659" height="1088.603" viewBox="0 0 1604.659 1088.603"> -->
<svg xmlns="http://www.w3.org/2000/svg" viewBox="0 0 100 100">
  <g id="Group_19449" data-name="Group 19449" transform="translate(-158 -8428.5)">
    <g id="Group_19073" data-name="Group 19073" transform="translate(607.804 8258.71)" opacity="0.03">
      <g id="Group_19050" data-name="Group 19050" transform="translate(-3.252 358.34)">
        <g id="Group_19047" data-name="Group 19047" transform="translate(40.125 40.132)">
          <path id="Path_19590" data-name="Path 19590" d="M157.3,834.514c-174.031,0-315.621-141.589-315.621-315.621S-16.733,203.273,157.3,203.273,472.919,344.862,472.919,518.894,331.337,834.514,157.3,834.514Zm0-627.826c-172.153,0-312.206,140.053-312.206,312.206S-14.854,831.1,157.3,831.1,469.5,691.047,469.5,518.894,329.452,206.688,157.3,206.688Z" transform="translate(158.322 -203.273)" fill="#d8d8d8"/>
        </g>
        <g id="Group_19048" data-name="Group 19048">
          <path id="Path_19591" data-name="Path 19591" d="M191.549,908.9C-4.6,908.9-164.2,749.31-164.2,553.15S-4.6,197.4,191.549,197.4,547.3,356.983,547.3,553.15,387.716,908.9,191.549,908.9Zm0-708.084c-194.275,0-352.331,158.063-352.331,352.338S-2.726,905.481,191.549,905.481,543.887,747.424,543.887,553.15,385.831,200.812,191.549,200.812Z" transform="translate(164.197 -197.397)" fill="#d8d8d8"/>
        </g>
        <g id="Group_19049" data-name="Group 19049" transform="translate(355.746 355.753)">
          <path id="Path_19592" data-name="Path 19592" d="M-112.11,625.044v-20.49c195.784,0,355.077-159.285,355.077-355.07h20.49C263.456,456.566,94.978,625.044-112.11,625.044Z" transform="translate(112.11 -249.485)" fill="#d8d8d8"/>
        </g>
      </g>
      <g id="Group_19054" data-name="Group 19054" transform="translate(-102.906 258.686)">
        <g id="Group_19051" data-name="Group 19051" transform="translate(52.002 52.009)">
          <path id="Path_19593" data-name="Path 19593" d="M230.68,994.116c-221.587,0-401.854-180.267-401.854-401.847S9.093,190.421,230.68,190.421,632.528,370.688,632.528,592.268,452.254,994.116,230.68,994.116Zm0-800.28c-219.7,0-398.439,178.737-398.439,398.432S10.985,990.7,230.68,990.7,629.113,811.964,629.113,592.268,450.376,193.836,230.68,193.836Z" transform="translate(171.174 -190.421)" fill="#d8d8d8"/>
        </g>
        <g id="Group_19052" data-name="Group 19052">
          <path id="Path_19594" data-name="Path 19594" d="M275.069,1090.519c-250.259,0-453.857-203.6-453.857-453.857S24.81,182.806,275.069,182.806s453.85,203.6,453.85,453.857S525.321,1090.519,275.069,1090.519Zm0-902.591c-247.431,0-448.734,201.3-448.734,448.734S27.637,1085.4,275.069,1085.4,723.8,884.094,723.8,636.663,522.493,187.928,275.069,187.928Z" transform="translate(178.788 -182.806)" fill="#d8d8d8"/>
        </g>
        <g id="Group_19053" data-name="Group 19053" transform="translate(453.857 453.857)">
          <path id="Path_19595" data-name="Path 19595" d="M-112.336,725.168V704.679c251.113,0,455.414-204.3,455.414-455.421h20.49C363.567,511.674,150.08,725.168-112.336,725.168Z" transform="translate(112.336 -249.258)" fill="#d8d8d8"/>
        </g>
      </g>
      <g id="Group_19057" data-name="Group 19057" transform="translate(-2.755 358.844)">
        <g id="Group_19055" data-name="Group 19055" transform="translate(627.004 0)">
          <rect id="Rectangle_36" data-name="Rectangle 36" width="114.668" height="3.414" transform="translate(0 81.081) rotate(-44.999)" fill="#d8d8d8"/>
        </g>
        <g id="Group_19056" data-name="Group 19056" transform="translate(0 627.008)">
          <rect id="Rectangle_37" data-name="Rectangle 37" width="114.661" height="3.415" transform="translate(0 81.066) rotate(-44.992)" fill="#d8d8d8"/>
        </g>
      </g>
      <g id="Group_19060" data-name="Group 19060" transform="translate(350.789 169.79)">
        <g id="Group_19058" data-name="Group 19058">
          <rect id="Rectangle_38" data-name="Rectangle 38" width="3.415" height="258.296" fill="#d8d8d8"/>
        </g>
        <g id="Group_19059" data-name="Group 19059" transform="translate(0 830.309)">
          <rect id="Rectangle_39" data-name="Rectangle 39" width="3.415" height="258.293" fill="#d8d8d8"/>
        </g>
      </g>
      <g id="Group_19063" data-name="Group 19063" transform="translate(-191.804 712.386)">
        <g id="Group_19061" data-name="Group 19061" transform="translate(830.306)">
          <rect id="Rectangle_40" data-name="Rectangle 40" width="258.301" height="3.415" fill="#d8d8d8"/>
        </g>
        <g id="Group_19062" data-name="Group 19062">
          <rect id="Rectangle_41" data-name="Rectangle 41" width="258.294" height="3.415" fill="#d8d8d8"/>
        </g>
      </g>
      <g id="Group_19064" data-name="Group 19064" transform="translate(-87.976 712.386)">
        <rect id="Rectangle_42" data-name="Rectangle 42" width="86.433" height="3.415" fill="#d8d8d8"/>
      </g>
      <g id="Group_19065" data-name="Group 19065" transform="translate(706.54 712.386)">
        <rect id="Rectangle_43" data-name="Rectangle 43" width="86.427" height="3.415" fill="#d8d8d8"/>
      </g>
      <g id="Group_19066" data-name="Group 19066" transform="translate(-128.949 463.554)">
        <path id="Path_19596" data-name="Path 19596" d="M-112.349,713.873l-.881-1.455a481.858,481.858,0,0,1,0-498.162l.881-1.455L-75.8,234.9l-.881,1.468a439.067,439.067,0,0,0,0,453.945l.881,1.468Zm1.161-496.379a478.418,478.418,0,0,0,0,491.687l30.707-18.563a442.508,442.508,0,0,1,0-454.56Z" transform="translate(182.601 -212.802)" fill="#d8d8d8"/>
      </g>
      <g id="Group_19067" data-name="Group 19067" transform="translate(727.131 463.554)">
        <path id="Path_19597" data-name="Path 19597" d="M-20.7,713.873l-36.553-22.094.888-1.468A437.922,437.922,0,0,0,6.848,463.341,437.981,437.981,0,0,0-56.369,236.365l-.888-1.468L-20.7,212.8l.888,1.455A480.666,480.666,0,0,1,49.555,463.341,480.66,480.66,0,0,1-19.816,712.419Zm-31.868-23.256,30.714,18.563a477.173,477.173,0,0,0,68-245.84,477.179,477.179,0,0,0-68-245.847l-30.714,18.564A441.333,441.333,0,0,1,10.263,463.341,441.291,441.291,0,0,1-52.572,690.618Z" transform="translate(57.257 -212.802)" fill="#d8d8d8"/>
      </g>
      <g id="Group_19068" data-name="Group 19068" transform="translate(-38.624 322.968)">
        <path id="Path_19598" data-name="Path 19598" d="M-135.227,583.343h-34.149c0-215.666,175.452-391.125,391.118-391.125v34.149C24.906,226.367-135.227,386.506-135.227,583.343Z" transform="translate(169.376 -192.218)" fill="#d8d8d8"/>
      </g>
      <g id="Group_19069" data-name="Group 19069" transform="translate(219.271 1054.328)">
        <path id="Path_19599" data-name="Path 19599" d="M1.607,356.89a396.836,396.836,0,0,1-133.223-22.86l6.857-19.3A376.466,376.466,0,0,0,1.607,336.4a373.794,373.794,0,0,0,163.37-37.1l8.886,18.468A394.305,394.305,0,0,1,1.607,356.89Z" transform="translate(131.616 -299.301)" fill="#d8d8d8"/>
      </g>
      <g id="Group_19070" data-name="Group 19070" transform="translate(505.612 381.664)">
        <path id="Path_19600" data-name="Path 19600" d="M6.985,281.561a353.984,353.984,0,0,0-96.676-68.442l5.922-12.307a367.5,367.5,0,0,1,100.4,71.064Z" transform="translate(89.691 -200.812)" fill="#d8d8d8"/>
      </g>
      <g id="Group_19071" data-name="Group 19071" transform="translate(794.173 509.095)">
        <path id="Path_19601" data-name="Path 19601" d="M14.219,423.136H-6.271a479.387,479.387,0,0,0-41.17-195.368l18.727-8.3A499.55,499.55,0,0,1,14.219,423.136Z" transform="translate(47.441 -219.47)" fill="#d8d8d8"/>
      </g>
      <g id="Group_19072" data-name="Group 19072" transform="translate(-149.315 540.847)">
        <path id="Path_19602" data-name="Path 19602" d="M-172.825,509.081a504.606,504.606,0,0,1-12.758-112.9,500.094,500.094,0,0,1,30.29-172.064l19.253,7.028a479.6,479.6,0,0,0-29.054,165.036A483.92,483.92,0,0,0-152.854,504.5Z" transform="translate(185.583 -224.119)" fill="#d8d8d8"/>
      </g>
    </g>
    <text id="Connect_Things_to_the_Internet_in_a_seamless_and_transparent_fashion._Authorized_devices_connect_automatically_to_intermediate_hardware_gateways_or_Smartphone_Apps_within_communication_range._" data-name="Connect “Things” to the Internet in a seamless and transparent fashion. Authorized devices connect automatically to intermediate hardware gateways or Smartphone Apps within communication range.
" transform="translate(521 8601.5)" fill="#dfdfdf" font-size="13" font-family="Helvetica-Light, Helvetica" font-weight="300" letter-spacing="0.025em"><tspan x="0" y="10">Connect “Things” to the Internet in a seamless </tspan><tspan x="0" y="26">and transparent fashion. Authorized devices </tspan><tspan x="0" y="42">connect automatically to intermediate </tspan><tspan x="0" y="58">hardware gateways or Smartphone Apps within </tspan><tspan x="0" y="74">communication range.</tspan><tspan font-family="Gilroy-Light, Gilroy"><tspan x="0" y="90"></tspan></tspan></text>
    <text id="Protects_the_privacy_and_integrity_of_customer_s_information_by_creating_a_secure_tunnel_at_the_application_layer._This_secure_tunnel_protects_data_without_relying_on_the_underlying_security_or_lack_thereof_of_the_transport_mechanism_being_used._i.e." data-name="Protects the privacy and integrity of customer’s information by creating a secure tunnel at the application layer.  This secure tunnel protects data  without relying on the underlying security, or lack thereof, of the transport mechanism being used. 
(i.e." transform="translate(521 9292.5)" fill="#dfdfdf" font-size="13" font-family="Helvetica-Light, Helvetica" font-weight="300" letter-spacing="0.025em"><tspan x="0" y="10">Protects the privacy and integrity of customer’s </tspan><tspan x="0" y="26">information by creating a secure tunnel at the </tspan><tspan x="0" y="42" xml:space="preserve">application layer.  This secure tunnel protects data  </tspan><tspan x="0" y="58">without relying on the underlying security, or lack </tspan><tspan x="0" y="74">thereof, of the transport mechanism being used. </tspan></text>
    <text id="Authenticate_customers_and_their_devices_protect_your_app_from_malware_attacks_and_validate_system_commands_and_components_via_remote_attestation._You_ll_ensure_that_all_system_elements_can_be_trusted_at_all_times." data-name="Authenticate customers and their devices, protect your app from malware attacks, and validate system commands and components via remote attestation. You’ll ensure that all system elements can be trusted at all times." transform="translate(1096 8601.5)" fill="#dfdfdf" font-size="13" font-family="Helvetica-Light, Helvetica" font-weight="300" letter-spacing="0.025em"><tspan x="32.054" y="10">Authenticate customers and their devices, </tspan><tspan x="23.071" y="26">protect your app from malware attacks, and </tspan><tspan x="16.844" y="42">validate system commands and components </tspan><tspan x="29.207" y="58">via remote attestation. You’ll ensure that all </tspan><tspan x="20.991" y="74">system elements can be trusted at all times.</tspan></text>
    <text id="Using_Blockchain_technology_RecordAuth_ensures_the_authenticity_of_data_entered_into_the_system_by_various_sensors_or_entities_within_a_supply_chain_or_financial_ecosystem._" data-name="Using Blockchain technology, RecordAuth™ ensures the authenticity of data entered into the system by various sensors or entities within a supply chain or financial ecosystem.
" transform="translate(1096 9292.5)" fill="#dfdfdf" font-size="13" font-family="Helvetica-Light, Helvetica" font-weight="300" letter-spacing="0.025em"><tspan x="20.146" y="10">Using Blockchain technology, RecordAuth™ </tspan><tspan x="21.082" y="26">ensures the authenticity of data entered into </tspan><tspan x="2.362" y="42">the system by various sensors or entities within </tspan><tspan x="55.441" y="58">a supply chain or financial ecosystem.</tspan><tspan font-family="Gilroy-Light, Gilroy"><tspan x="290" y="74"></tspan></tspan></text>
    <circle id="Ellipse_36" data-name="Ellipse 36" cx="224.275" cy="224.275" r="224.275" transform="translate(742.361 8756.5)" fill="#191919"/>
    <g id="Group_19024" data-name="Group 19024" transform="translate(0.361 1070.484)">
      <g id="Group_19002" data-name="Group 19002" transform="translate(724.331 7640.016)">
        <g id="Group_18992" data-name="Group 18992" transform="translate(5.379)">
          <g id="Group_18990" data-name="Group 18990" transform="translate(12.565)">
            <path id="Path_19545" data-name="Path 19545" d="M196.431,208.1a1.95,1.95,0,0,1-1.656-2.97C243,127.07,326.467,80.468,418.059,80.468s175.06,46.6,223.28,124.665a1.95,1.95,0,0,1-3.321,2.046c-47.5-76.9-129.728-122.814-219.959-122.814S245.6,130.278,198.091,207.18A1.953,1.953,0,0,1,196.431,208.1Z" transform="translate(-194.483 -80.468)" fill="#191919"/>
          </g>
          <g id="Group_18991" data-name="Group 18991" transform="translate(0 374.164)">
            <path id="Path_19546" data-name="Path 19546" d="M427.4,326.9c-101.2,0-191.605-56.568-235.943-147.63a1.947,1.947,0,1,1,3.5-1.707C238.64,267.269,327.706,323,427.4,323s188.756-55.73,232.435-145.439a1.949,1.949,0,0,1,3.5,1.707C619,270.329,528.595,326.9,427.4,326.9Z" transform="translate(-191.259 -176.469)" fill="#191919"/>
          </g>
        </g>
        <g id="Group_19001" data-name="Group 19001" transform="translate(0)">
          <g id="Group_18996" data-name="Group 18996" transform="translate(12.567)">
            <g id="Group_18993" data-name="Group 18993" transform="translate(5.377)">
              <path id="Path_19547" data-name="Path 19547" d="M639.678,208.1a1.953,1.953,0,0,1-1.66-.924c-47.5-76.9-129.728-122.814-219.959-122.814S245.6,130.278,198.091,207.18a1.949,1.949,0,0,1-3.317-2.046C243,127.07,326.467,80.468,418.059,80.468s175.06,46.6,223.28,124.665a1.95,1.95,0,0,1-1.66,2.97Z" transform="translate(-194.483 -80.468)" fill="#191919"/>
            </g>
            <g id="Group_18994" data-name="Group 18994" transform="translate(443.247 118.361)">
              <path id="Path_19548" data-name="Path 19548" d="M320.391,114.311A7.327,7.327,0,1,1,310.3,111.93,7.33,7.33,0,0,1,320.391,114.311Z" transform="translate(-306.829 -110.836)" fill="#191919"/>
            </g>
            <g id="Group_18995" data-name="Group 18995" transform="translate(0 118.361)">
              <path id="Path_19549" data-name="Path 19549" d="M194.2,114.311a7.327,7.327,0,1,0,10.087-2.381A7.33,7.33,0,0,0,194.2,114.311Z" transform="translate(-193.104 -110.836)" fill="#191919"/>
            </g>
          </g>
          <g id="Group_19000" data-name="Group 19000" transform="translate(0 368.782)">
            <g id="Group_18997" data-name="Group 18997" transform="translate(5.379 5.382)">
              <path id="Path_19550" data-name="Path 19550" d="M427.4,326.9c-101.2,0-191.605-56.568-235.943-147.63a1.947,1.947,0,1,1,3.5-1.707C238.64,267.269,327.706,323,427.4,323s188.756-55.73,232.435-145.439a1.949,1.949,0,0,1,3.5,1.707C619,270.329,528.595,326.9,427.4,326.9Z" transform="translate(-191.259 -176.469)" fill="#191919"/>
            </g>
            <g id="Group_18998" data-name="Group 18998">
              <path id="Path_19551" data-name="Path 19551" d="M190.619,185.623a7.326,7.326,0,1,1,9.794,3.383A7.33,7.33,0,0,1,190.619,185.623Z" transform="translate(-189.879 -175.088)" fill="#191919"/>
            </g>
            <g id="Group_18999" data-name="Group 18999" transform="translate(468.38)">
              <path id="Path_19552" data-name="Path 19552" d="M323.969,185.623a7.326,7.326,0,1,0-9.794,3.383A7.33,7.33,0,0,0,323.969,185.623Z" transform="translate(-310.054 -175.088)" fill="#191919"/>
            </g>
          </g>
        </g>
      </g>
      <g id="Group_19011" data-name="Group 19011" transform="translate(342.64 7738.209)">
        <g id="Group_19006" data-name="Group 19006" transform="translate(0)">
          <g id="Group_19003" data-name="Group 19003" transform="translate(5.379 5.012)">
            <path id="Path_19553" data-name="Path 19553" d="M453.312,207.979H150.145a56.885,56.885,0,0,1-56.818-56.822V108.9a1.949,1.949,0,1,1,3.9,0v42.261a52.981,52.981,0,0,0,52.92,52.924H453.312a1.949,1.949,0,1,1,0,3.9Z" transform="translate(-93.327 -106.948)" fill="#191919"/>
          </g>
          <g id="Group_19004" data-name="Group 19004">
            <path id="Path_19554" data-name="Path 19554" d="M91.947,112.989a7.327,7.327,0,1,1,7.327,7.323A7.329,7.329,0,0,1,91.947,112.989Z" transform="translate(-91.947 -105.662)" fill="#191919"/>
          </g>
          <g id="Group_19005" data-name="Group 19005" transform="translate(357.674 96.767)">
            <path id="Path_19555" data-name="Path 19555" d="M191.044,145.145a7.327,7.327,0,1,0-7.327-7.327A7.325,7.325,0,0,0,191.044,145.145Z" transform="translate(-183.717 -130.49)" fill="#191919"/>
          </g>
        </g>
        <g id="Group_19010" data-name="Group 19010" transform="translate(0 206.175)">
          <g id="Group_19007" data-name="Group 19007" transform="translate(5.379 5.377)">
            <path id="Path_19556" data-name="Path 19556" d="M95.276,260.976a1.949,1.949,0,0,1-1.949-1.949V216.763a56.885,56.885,0,0,1,56.818-56.822H453.312a1.949,1.949,0,1,1,0,3.9H150.145a52.983,52.983,0,0,0-52.92,52.924v42.264A1.947,1.947,0,0,1,95.276,260.976Z" transform="translate(-93.327 -159.941)" fill="#191919"/>
          </g>
          <g id="Group_19008" data-name="Group 19008" transform="translate(0 96.769)">
            <circle id="Ellipse_37" data-name="Ellipse 37" cx="7.327" cy="7.327" r="7.327" fill="#191919"/>
          </g>
          <g id="Group_19009" data-name="Group 19009" transform="translate(357.672)">
            <circle id="Ellipse_38" data-name="Ellipse 38" cx="7.327" cy="7.327" r="7.327" fill="#191919"/>
          </g>
        </g>
      </g>
      <g id="Group_19020" data-name="Group 19020" transform="translate(1216.503 7738.209)">
        <g id="Group_19015" data-name="Group 19015" transform="translate(0 206.174)">
          <g id="Group_19012" data-name="Group 19012" transform="translate(5.008 5.379)">
            <path id="Path_19557" data-name="Path 19557" d="M677.436,260.976a1.947,1.947,0,0,1-1.949-1.949V216.763a52.987,52.987,0,0,0-52.924-52.924H319.392a1.949,1.949,0,1,1,0-3.9H622.563a56.885,56.885,0,0,1,56.822,56.822v42.264A1.949,1.949,0,0,1,677.436,260.976Z" transform="translate(-317.443 -159.941)" fill="#191919"/>
          </g>
          <g id="Group_19013" data-name="Group 19013" transform="translate(357.67 96.771)">
            <path id="Path_19558" data-name="Path 19558" d="M422.582,190.717a7.327,7.327,0,1,1-7.327-7.327A7.329,7.329,0,0,1,422.582,190.717Z" transform="translate(-407.927 -183.39)" fill="#191919"/>
          </g>
          <g id="Group_19014" data-name="Group 19014">
            <path id="Path_19559" data-name="Path 19559" d="M323.481,158.561a7.327,7.327,0,1,0,7.327,7.327A7.325,7.325,0,0,0,323.481,158.561Z" transform="translate(-316.158 -158.561)" fill="#191919"/>
          </g>
        </g>
        <g id="Group_19019" data-name="Group 19019">
          <g id="Group_19016" data-name="Group 19016" transform="translate(5.008 5.012)">
            <path id="Path_19560" data-name="Path 19560" d="M622.563,207.979H319.392a1.949,1.949,0,1,1,0-3.9H622.563a52.984,52.984,0,0,0,52.924-52.924V108.9a1.949,1.949,0,1,1,3.9,0v42.261A56.885,56.885,0,0,1,622.563,207.979Z" transform="translate(-317.443 -106.948)" fill="#191919"/>
          </g>
          <g id="Group_19017" data-name="Group 19017" transform="translate(357.67)">
            <path id="Path_19561" data-name="Path 19561" d="M407.927,112.989a7.327,7.327,0,1,1,7.327,7.323A7.329,7.329,0,0,1,407.927,112.989Z" transform="translate(-407.927 -105.662)" fill="#191919"/>
          </g>
          <g id="Group_19018" data-name="Group 19018" transform="translate(0 96.767)">
            <path id="Path_19562" data-name="Path 19562" d="M323.481,130.49a7.327,7.327,0,1,0,7.327,7.327A7.325,7.325,0,0,0,323.481,130.49Z" transform="translate(-316.158 -130.49)" fill="#191919"/>
          </g>
        </g>
      </g>
    </g>
    <g id="Group_19021" data-name="Group 19021" transform="translate(0.361 1078.293)">
      <circle id="Ellipse_39" data-name="Ellipse 39" cx="135.998" cy="135.998" r="135.998" transform="translate(157.639 7566.536) rotate(-45)" fill="#191919"/>
      <path id="Path_19563" data-name="Path 19563" d="M199.279,36.913c71.765,0,130.149,58.385,130.149,130.153A130.3,130.3,0,0,1,199.279,297.216c-71.765,0-130.153-58.385-130.153-130.149A130.3,130.3,0,0,1,199.279,36.913m0-11.692A141.844,141.844,0,1,0,341.12,167.067,141.845,141.845,0,0,0,199.279,25.221Z" transform="translate(150.689 7399.47)" fill="none" stroke="#707070" stroke-width="1"/>
    </g>
    <g id="Group_19022" data-name="Group 19022" transform="translate(0.659 1078.295)">
      <circle id="Ellipse_40" data-name="Ellipse 40" cx="135.998" cy="135.998" r="135.998" transform="translate(1377.341 7566.535) rotate(-45)" fill="#191919"/>
      <path id="Path_19564" data-name="Path 19564" d="M512.224,36.913c71.765,0,130.149,58.385,130.149,130.153A130.3,130.3,0,0,1,512.224,297.216c-71.769,0-130.153-58.385-130.153-130.149A130.3,130.3,0,0,1,512.224,36.913m0-11.692A141.844,141.844,0,1,0,654.065,167.067,141.845,141.845,0,0,0,512.224,25.221Z" transform="translate(1057.448 7399.47)" fill="none" stroke="#707070" stroke-width="1"/>
    </g>
    <g id="Group_19023" data-name="Group 19023" transform="translate(0.659 1055.307)">
      <circle id="Ellipse_41" data-name="Ellipse 41" cx="135.998" cy="135.998" r="135.998" transform="translate(1377.341 8230.522) rotate(-45)" fill="#191919"/>
      <path id="Path_19565" data-name="Path 19565" d="M512.224,207.276c71.765,0,130.149,58.388,130.149,130.153A130.3,130.3,0,0,1,512.224,467.578c-71.769,0-130.153-58.384-130.153-130.149A130.3,130.3,0,0,1,512.224,207.276m0-11.693A141.844,141.844,0,1,0,654.065,337.429,141.845,141.845,0,0,0,512.224,195.583Z" transform="translate(1057.447 7893.094)" fill="none" stroke="#707070" stroke-width="1"/>
    </g>
    <g id="Group_19025" data-name="Group 19025" transform="translate(0.361 1055.307)">
      <circle id="Ellipse_42" data-name="Ellipse 42" cx="135.998" cy="135.998" r="135.998" transform="translate(157.639 8230.522) rotate(-45)" fill="#191919"/>
      <path id="Path_19566" data-name="Path 19566" d="M199.279,207.276c71.765,0,130.149,58.388,130.149,130.153A130.3,130.3,0,0,1,199.279,467.578c-71.765,0-130.153-58.384-130.153-130.149s58.388-130.153,130.153-130.153m0-11.693A141.844,141.844,0,1,0,341.12,337.429,141.845,141.845,0,0,0,199.279,195.583Z" transform="translate(150.689 7893.094)" fill="none" stroke="#707070" stroke-width="1"/>
    </g>
    <g id="Group_19045" data-name="Group 19045" transform="translate(0.361 1075.5)">
      <text id="_4_Key_Products_enabling_Trust_Security_Interoperability_Solutions_" data-name="4 Key Products enabling Trust, Security &amp; Interoperability Solutions
" transform="translate(816.5 7903.5)" fill="#dfdfdf" font-size="15" font-family="Montserrat-Regular, Montserrat" letter-spacing="0.05em"><tspan x="0" y="15">4 Key Products enabling Trust, </tspan><tspan x="0" y="34">Security &amp; Interoperability Solutions</tspan></text>
      <text id="Product_Overview" data-name="Product Overview" transform="translate(816 7861)" fill="#f6f6f6" font-size="30" font-family="Montserrat-Bold, Montserrat" font-weight="700"><tspan x="0" y="29">Product Overview</tspan></text>
    </g>
    <text id="SeamlessConnect_" data-name="SeamlessConnect™
" transform="translate(521 8565.5)" fill="#4bd7e8" font-size="20" font-family="Montserrat-Bold, Montserrat" font-weight="700" letter-spacing="0.02em"><tspan x="0" y="19">SeamlessConnect™</tspan></text>
    <text id="SecureConnectivity_" data-name="SecureConnectivity™

" transform="translate(521 9256.5)" fill="#4bd7e8" font-size="20" font-family="Montserrat-Bold, Montserrat" font-weight="700" letter-spacing="0.02em"><tspan x="0" y="19">SecureConnectivity™</tspan></text>
    <text id="AppAuth_" data-name="AppAuth™

" transform="translate(1157 8565.5)" fill="#4bd7e8" font-size="20" font-family="Montserrat-Bold, Montserrat" font-weight="700" letter-spacing="0.02em"><tspan x="111.86" y="19">AppAuth™</tspan></text>
    <text id="RecordAuth_" data-name="RecordAuth™

" transform="translate(1157 9256.5)" fill="#4bd7e8" font-size="20" font-family="Montserrat-Bold, Montserrat" font-weight="700" letter-spacing="0.02em"><tspan x="78.8" y="19">RecordAuth™</tspan></text>
    <g id="Group_19026" data-name="Group 19026" transform="translate(-2265.82 8114.006)">
      <path id="Path_19567" data-name="Path 19567" d="M2639.932,538.888a8.059,8.059,0,1,0,8.058,8.06A8.059,8.059,0,0,0,2639.932,538.888Z" transform="translate(-14.426 -11.057)" fill="#f6f6f6"/>
      <path id="Path_19568" data-name="Path 19568" d="M2672.356,512.952a3.734,3.734,0,1,0-3.735-3.734A3.734,3.734,0,0,0,2672.356,512.952Z" transform="translate(-22.333 -3.87)" fill="#f6f6f6"/>
      <path id="Path_19569" data-name="Path 19569" d="M2660.461,560.6a7.193,7.193,0,0,0-4.53,1.6L2637.2,546.181a15.569,15.569,0,0,0-1.418-22l10.682-12.552a7.232,7.232,0,1,0-1.946-1.611l-10.767,12.65a15.59,15.59,0,0,0-15.694-.471l-14.714-22.229a7.19,7.19,0,1,0-2.111,1.387l14.713,22.232a15.606,15.606,0,0,0-5.289,7.565l-31.476-9.145a7.222,7.222,0,1,0-.811,2.4l31.718,9.215a15.7,15.7,0,0,0-.167,2.271,15.5,15.5,0,0,0,2.578,8.58l-25.285,17.306a7.189,7.189,0,1,0,1.371,2.123l25.365-17.361-.731-1.067a15.576,15.576,0,0,0,22.157,2.474l18.893,16.162a7.221,7.221,0,1,0,6.19-3.5Zm-16.074-55.258a5.636,5.636,0,1,1,5.636,5.637A5.636,5.636,0,0,1,2644.388,505.347Zm-45.994-5a5.636,5.636,0,1,1,5.636-5.636A5.635,5.635,0,0,1,2598.394,500.351Zm-26.352,26.212a5.636,5.636,0,1,1,5.636-5.637A5.637,5.637,0,0,1,2572.042,526.563Zm9.881,45.762a5.636,5.636,0,1,1,5.636-5.636A5.636,5.636,0,0,1,2581.924,572.325Zm43.582-24.272a12.163,12.163,0,1,1,12.162-12.162A12.162,12.162,0,0,1,2625.506,548.052Zm34.956,25.41a5.636,5.636,0,1,1,5.637-5.637A5.636,5.636,0,0,1,2660.461,573.463Z" transform="translate(0 0)" fill="#f6f6f6"/>
      <path id="Path_19570" data-name="Path 19570" d="M2685.656,585.089a3.734,3.734,0,1,0,3.735,3.734A3.734,3.734,0,0,0,2685.656,585.089Z" transform="translate(-25.194 -20.997)" fill="#f6f6f6"/>
      <path id="Path_19571" data-name="Path 19571" d="M2585.588,583.64a3.734,3.734,0,1,0,3.734,3.734A3.734,3.734,0,0,0,2585.588,583.64Z" transform="translate(-3.665 -20.686)" fill="#f6f6f6"/>
      <path id="Path_19572" data-name="Path 19572" d="M2573,525.334a3.734,3.734,0,1,0,3.735,3.734A3.734,3.734,0,0,0,2573,525.334Z" transform="translate(-0.956 -8.141)" fill="#f6f6f6"/>
      <path id="Path_19573" data-name="Path 19573" d="M2606.573,491.937a3.734,3.734,0,1,0,3.734,3.734A3.734,3.734,0,0,0,2606.573,491.937Z" transform="translate(-8.18 -0.956)" fill="#f6f6f6"/>
    </g>
    <g id="Group_19034" data-name="Group 19034" transform="translate(-1461.505 8110.85)">
      <g id="Group_19027" data-name="Group 19027" transform="translate(3047.697 513.764)">
        <path id="Path_19574" data-name="Path 19574" d="M3110.506,580.567h-21.563a5,5,0,0,1-4.994-4.993V527.882a4.5,4.5,0,0,1,4.492-4.492h22.566a4.5,4.5,0,0,1,4.492,4.492v47.691A5,5,0,0,1,3110.506,580.567Zm-22.065-55.881a3.2,3.2,0,0,0-3.2,3.2v47.691a3.7,3.7,0,0,0,3.7,3.7h21.563a3.7,3.7,0,0,0,3.7-3.7V527.882a3.2,3.2,0,0,0-3.2-3.2Z" transform="translate(-3083.949 -523.39)" fill="#f6f6f6"/>
      </g>
      <g id="Group_19028" data-name="Group 19028" transform="translate(2985.207 496.984)">
        <path id="Path_19575" data-name="Path 19575" d="M3045.017,554.809h-54.089a5.323,5.323,0,0,1-5.318-5.318V501.8a4.822,4.822,0,0,1,4.816-4.816h69.943a4.822,4.822,0,0,1,4.816,4.816v8.271h-1.944V501.8a2.875,2.875,0,0,0-2.872-2.872h-69.943a2.876,2.876,0,0,0-2.873,2.872v47.691a3.378,3.378,0,0,0,3.374,3.374h54.089Z" transform="translate(-2985.61 -496.984)" fill="#f6f6f6"/>
      </g>
      <g id="Group_19029" data-name="Group 19029" transform="translate(3051.994 517.851)">
        <path id="Path_19576" data-name="Path 19576" d="M3113.668,575.839h-22.958V529.822h22.958Zm-22.481-.477h22V530.3h-22Z" transform="translate(-3090.711 -529.822)" fill="#f6f6f6"/>
      </g>
      <g id="Group_19030" data-name="Group 19030" transform="translate(3061.344 564.623)">
        <path id="Path_19577" data-name="Path 19577" d="M3107.554,607.683a2.128,2.128,0,1,1,2.128-2.128A2.131,2.131,0,0,1,3107.554,607.683Zm0-3.771a1.643,1.643,0,1,0,1.643,1.643A1.644,1.644,0,0,0,3107.554,603.912Z" transform="translate(-3105.425 -603.426)" fill="#f6f6f6"/>
      </g>
      <g id="Group_19031" data-name="Group 19031" transform="translate(2984.505 556.009)">
        <path id="Path_19578" data-name="Path 19578" d="M3044.281,589.889a3.392,3.392,0,0,0-.352-.018h-56a3.428,3.428,0,0,0,0,6.857h56a3.409,3.409,0,0,0,.352-.018Z" transform="translate(-2984.505 -589.871)" fill="#f6f6f6"/>
      </g>
      <g id="Group_19032" data-name="Group 19032" transform="translate(3012.102 511.232)">
        <path id="Path_19579" data-name="Path 19579" d="M3037.8,540.627l-9.618-10.686a.972.972,0,0,1,1.445-1.3l8.209,9.122,17.1-18.054a.972.972,0,1,1,1.411,1.336Z" transform="translate(-3027.934 -519.406)" fill="#f6f6f6"/>
      </g>
      <g id="Group_19033" data-name="Group 19033" transform="translate(3055.029 533.631)">
        <path id="Path_19580" data-name="Path 19580" d="M3101.137,566.806l-5.507-6.119a.556.556,0,0,1,.827-.745l4.7,5.224,9.794-10.339a.557.557,0,0,1,.808.766Z" transform="translate(-3095.487 -554.654)" fill="#f6f6f6"/>
      </g>
    </g>
    <g id="Group_19035" data-name="Group 19035" transform="translate(-3130.111 8755.048)">
      <path id="Path_19581" data-name="Path 19581" d="M3518.181,498.06c-.345.006-.889.011-1.236.011-16.63,0-30.828-6.758-36.511-16.287-5.683,9.529-19.882,16.287-36.511,16.287-.347,0-.891-.006-1.237-.011,0,.679.018,35.333.018,37.613-.114,10.141,4.325,30.261,37.722,43.824l.009,0,.008,0c33.4-13.563,37.835-33.684,37.721-43.824C3518.164,533.394,3518.181,498.74,3518.181,498.06Zm-3.877,5.9v2.286l0,10.362c-.005,9.271-.009,18.225-.009,19.4v.086c.1,9.16-4.046,26.463-32.982,39.432l-.873.391-.872-.391c-28.936-12.969-33.086-30.273-32.983-39.432v-.086c0-1.171,0-10.125-.009-19.4l-.005-10.361v-4.194l1.9-.213c11.977-1.341,22.847-5.636,30.612-12.092l1.363-1.134,1.364,1.134c7.765,6.457,18.635,10.752,30.61,12.092l1.9.213Z" transform="translate(0 0)" fill="#f6f6f6" fill-rule="evenodd"/>
      <path id="Path_19582" data-name="Path 19582" d="M3480.055,538.164v-7.505a10.288,10.288,0,0,1,20.575,0v7.505h-4.347v-7.505a5.941,5.941,0,0,0-11.882,0v7.505Zm24.225,1.371H3476.4c0,10.256,0,19.309,0,19.333,0,2.482,7.873,6.412,13.941,6.445,6.067-.033,13.94-3.963,13.94-6.445C3504.283,558.843,3504.281,549.79,3504.28,539.534Zm-11.663,17.555h-4.548l1.271-5.7a2.876,2.876,0,1,1,2,0Z" transform="translate(-9.908 -11.34)" fill="#f6f6f6" fill-rule="evenodd"/>
    </g>
    <g id="Group_19044" data-name="Group 19044" transform="translate(-2680.725 8507.999)">
      <g id="Group_19043" data-name="Group 19043" transform="translate(4214.725 722.167)">
        <g id="Group_19036" data-name="Group 19036" transform="translate(40.977 67.764)">
          <path id="Path_19583" data-name="Path 19583" d="M4275.685,822.976l.059.028.008,0-.067-.032Z" transform="translate(-4275.685 -822.976)" fill="#f6f6f6"/>
        </g>
        <g id="Group_19037" data-name="Group 19037" transform="translate(43.801 69.539)">
          <path id="Path_19584" data-name="Path 19584" d="M4279.885,825.616h0l0,0,0,0Z" transform="translate(-4279.885 -825.616)" fill="#f6f6f6"/>
        </g>
        <g id="Group_19038" data-name="Group 19038" transform="translate(21.551 66.691)">
          <path id="Path_19585" data-name="Path 19585" d="M4261.222,824.293a9.274,9.274,0,1,1-9.274,9.273,9.285,9.285,0,0,1,9.274-9.273Zm-7.348,33.261,3.775,8.062,3.573-15.342,3.576,15.342,3.771-8.062,7.088,5.531-5.272-21.495c.058-.065.114-.131.169-.2s.1-.12.146-.18c.069-.085.14-.17.206-.258l.051-.068.082-.108.016-.022c.049-.067.1-.132.146-.2h0q.087-.124.172-.25l.01-.017c.029-.044.057-.091.086-.136a12.185,12.185,0,0,0,1.136-2.229v0c.033-.088.067-.179.1-.27s.057-.165.083-.247c.012-.034.023-.069.034-.1l.006-.019.008-.026.015-.043c.025-.082.051-.164.074-.247h0c.032-.108.062-.217.091-.326a12.175,12.175,0,0,0-2.031-10.347l-.01-.013.008.01-.072-.1h0c-.051-.066-.1-.131-.155-.2l0,.006c-.037-.046-.072-.092-.11-.138h0c-.05-.061-.1-.121-.153-.181l0,0-.1-.122-.017-.02h0l-.155-.171-.064-.07-.063-.069h0c-.051-.055-.1-.11-.157-.163l0,0-.093-.095-.044-.044v0h0l-.159-.155,0,0,0,0c-.047-.045-.093-.089-.14-.133l0,0h0c-.053-.049-.106-.1-.16-.146h0l0,0c-.048-.044-.1-.087-.147-.13l0,0h0c-.054-.047-.109-.093-.164-.14h0L4269,824.2l-.123-.1,0,0-.169-.134-.1-.079-.062-.048,0,0-.172-.128,0,0-.064-.046-.106-.075,0,0h0l-.169-.118h0c-.058-.039-.116-.077-.175-.116l-.006,0h0l-.169-.109h0l-.083-.051-.109-.067.008.005-.173-.1h0l-.08-.044-.128-.072.012.007c-.056-.032-.113-.064-.17-.1h0c-.071-.038-.144-.075-.215-.112l-.023-.012.012.007c-.049-.025-.1-.051-.146-.075h0c-.1-.05-.2-.1-.307-.145l-.013-.005-.058-.027c-.1-.045-.2-.088-.3-.13l.01,0-.011,0c-.164-.068-.33-.133-.5-.194l-.06-.023c-.161-.059-.325-.113-.489-.165l-.086-.027q-.24-.074-.485-.138l-.1-.026q-.244-.062-.49-.113l-.1-.021c-.166-.034-.332-.063-.5-.09l-.1-.014q-.257-.038-.518-.066l-.084-.008c-.18-.017-.36-.031-.543-.042l-.058,0c-.189-.009-.379-.015-.57-.015h-.009a12.117,12.117,0,0,0-5.265,1.2l-.015.007c-.039.019-.078.041-.117.06-.1.052-.207.1-.309.16-.043.022-.086.046-.129.07-.1.055-.2.11-.3.169-.122.071-.241.143-.358.217s-.234.152-.35.23q-.149.1-.3.208l-.042.03-.117.087c-.031.023-.062.047-.094.073-.048.035-.1.071-.143.11l-.143.115-.061.05-.011.009c-.03.024-.061.049-.09.074s-.083.07-.122.1l-.021.02-.056.048a.3.3,0,0,0-.044.04l-.043.038c-.025.021-.049.043-.073.067s-.049.043-.073.067-.049.044-.074.07-.059.054-.087.082-.049.046-.073.07c-.041.04-.081.079-.12.12s-.083.084-.126.126-.067.07-.1.106-.095.1-.141.151c-.029.03-.057.061-.084.094-.073.079-.143.159-.212.242l-.029.033-.192.235-.023.03c-.03.034-.057.071-.085.108l-.033.042c-.05.065-.1.13-.148.2l-.027.036c-.067.091-.134.182-.2.276-.016.021-.031.043-.045.063s-.024.035-.035.054-.023.037-.034.054a.4.4,0,0,0-.037.054c-.028.042-.057.085-.083.13-.015.019-.027.04-.04.06s-.042.067-.063.1l-.047.076c-.088.144-.172.29-.254.438l-.059.106c-.023.043-.045.085-.067.128l-.031.057c-.044.083-.085.167-.126.251-.021.041-.041.083-.062.126a.476.476,0,0,1-.022.048c-.035.074-.07.149-.1.224-.046.1-.09.2-.132.305-.027.065-.054.13-.079.2a.672.672,0,0,0-.029.075l-.047.124c-.015.036-.029.073-.042.109s-.022.061-.031.089c-.027.076-.052.152-.078.228-.03.092-.061.185-.089.279s-.057.188-.082.282-.053.19-.077.285l-.038.157c-.011.042-.021.087-.03.131-.022.1-.042.192-.063.288s-.039.2-.057.307c-.015.082-.027.165-.039.247-.008.05-.016.1-.022.154-.014.093-.027.186-.037.282v.009c0,.046-.011.091-.016.138-.011.117-.021.233-.029.349-.008.1-.014.2-.02.3,0,.081-.008.163-.009.245,0,.122-.006.244-.006.368a12.29,12.29,0,0,0,.13,1.784c.014.1.031.2.049.3.011.07.023.138.038.206.008.046.016.092.027.136s.022.111.034.166q.033.159.073.319c.027.11.055.223.087.333l.024.083q.037.137.081.272a.654.654,0,0,0,.02.065c.035.113.071.223.111.334.083.238.173.472.269.7s.2.457.311.68.226.442.35.657c.062.108.125.214.189.319.13.212.265.417.407.62.071.1.144.2.217.3s.149.2.227.292l-4.893,21.949,7.088-5.531Z" transform="translate(-4246.785 -821.38)" fill="#f6f6f6"/>
        </g>
        <g id="Group_19039" data-name="Group 19039" transform="translate(45.75 71.596)">
          <path id="Path_19586" data-name="Path 19586" d="M4282.955,828.909c-.055-.078-.113-.155-.171-.232l0,0c.057.075.114.151.168.229Z" transform="translate(-4282.784 -828.677)" fill="#f6f6f6"/>
        </g>
        <g id="Group_19040" data-name="Group 19040" transform="translate(45.331 86.556)">
          <path id="Path_19587" data-name="Path 19587" d="M4282.27,850.932l-.109.134.034-.04c.026-.031.05-.063.075-.094Z" transform="translate(-4282.161 -850.932)" fill="#f6f6f6"/>
        </g>
        <g id="Group_19041" data-name="Group 19041" transform="translate(28.548 71.44)">
          <path id="Path_19588" data-name="Path 19588" d="M4263.359,834.424l1.284-2.6,1.282,2.6,2.87.416-2.077,2.025.471,2.749c-.026.019-.055.036-.082.056l-2.465-1.3-2.476,1.3-.074-.049.473-2.761-2.076-2.025,2.869-.416Zm1.275,8.9a7.437,7.437,0,1,0-7.439-7.438,7.437,7.437,0,0,0,7.439,7.438Z" transform="translate(-4257.195 -828.445)" fill="#f6f6f6"/>
        </g>
        <g id="Group_19042" data-name="Group 19042">
          <path id="Path_19589" data-name="Path 19589" d="M4275.857,813.39h-11.688l-.52-1.981.374-.515a16.249,16.249,0,0,0,3.1-9.6,16.41,16.41,0,0,0-32.82,0,16.25,16.25,0,0,0,3.106,9.615l.374.514-.516,1.972h-11.7a10.855,10.855,0,0,1-10.842-10.842V733.009a10.855,10.855,0,0,1,10.842-10.842h50.291a10.855,10.855,0,0,1,10.842,10.842v69.539A10.855,10.855,0,0,1,4275.857,813.39Zm-8.516-2.689h8.516a8.163,8.163,0,0,0,8.153-8.153V733.009a8.163,8.163,0,0,0-8.153-8.153h-50.291a8.162,8.162,0,0,0-8.153,8.153v69.539a8.162,8.162,0,0,0,8.153,8.153h8.515a19.1,19.1,0,1,1,33.26,0Z" transform="translate(-4214.725 -722.167)" fill="#f6f6f6"/>
        </g>
      </g>
      <rect id="Rectangle_31" data-name="Rectangle 31" width="38.838" height="1.793" transform="translate(4231.293 738.847)" fill="#f6f6f6"/>
      <rect id="Rectangle_32" data-name="Rectangle 32" width="38.838" height="1.793" transform="translate(4231.293 747.81)" fill="#f6f6f6"/>
      <rect id="Rectangle_33" data-name="Rectangle 33" width="38.838" height="1.793" transform="translate(4231.293 755.577)" fill="#f6f6f6"/>
      <rect id="Rectangle_34" data-name="Rectangle 34" width="12.245" height="1.793" transform="translate(4231.293 765.137)" fill="#f6f6f6"/>
      <rect id="Rectangle_35" data-name="Rectangle 35" width="12.245" height="1.793" transform="translate(4257.886 765.137)" fill="#f6f6f6"/>
    </g>
    <g id="Group_19077" data-name="Group 19077" transform="translate(-1 1809.5)">
      <g id="Rectangle_25" data-name="Rectangle 25" transform="translate(522 7591)" fill="#191919" stroke="#707070" stroke-width="1">
        <rect width="91" height="33" stroke="none"/>
        <rect x="0.5" y="0.5" width="90" height="32" fill="none"/>
      </g>
      <text id="know_more" data-name="know more" transform="translate(568 7613)" fill="#f6f6f6" font-size="13" font-family="Montserrat-Thin, Montserrat" font-weight="200" letter-spacing="0.025em"><tspan x="-37.336" y="0">know more</tspan></text>
    </g>
    <g id="Group_19075" data-name="Group 19075" transform="translate(773 1109.5)">
      <g id="Rectangle_25-2" data-name="Rectangle 25" transform="translate(522 7591)" fill="#191919" stroke="#707070" stroke-width="1">
        <rect width="91" height="33" stroke="none"/>
        <rect x="0.5" y="0.5" width="90" height="32" fill="none"/>
      </g>
      <text id="know_more-2" data-name="know more" transform="translate(568 7613)" fill="#f6f6f6" font-size="13" font-family="Montserrat-Thin, Montserrat" font-weight="200" letter-spacing="0.025em"><tspan x="-37.336" y="0">know more</tspan></text>
    </g>
  </g>
</svg>
