<svg xmlns="http://www.w3.org/2000/svg" width="26.332" height="34.093" viewBox="0 0 26.332 34.093">
  <path id="ic_lock_outline_24px" d="M16.416,25.832a3.1,3.1,0,1,0-3.1-3.1A3.113,3.113,0,0,0,16.416,25.832Zm9.312-13.968H24.176V8.76a7.76,7.76,0,1,0-15.52,0v3.1H7.1a3.113,3.113,0,0,0-3.1,3.1v15.52a3.113,3.113,0,0,0,3.1,3.1H25.728a3.113,3.113,0,0,0,3.1-3.1V14.968A3.113,3.113,0,0,0,25.728,11.864ZM11.6,8.76a4.811,4.811,0,0,1,9.623,0v3.1H11.6ZM25.728,30.489H7.1V14.968H25.728Z" transform="translate(-3.25 -0.25)" fill="#c9c9c9" stroke="#161616" stroke-width="1.5"/>
</svg>
