<svg xmlns="http://www.w3.org/2000/svg" width="30.427" height="28.439" viewBox="0 0 30.427 28.439">
  <g id="Group_684" data-name="Group 684" transform="translate(0.538 0.5)">
    <path id="ic_trending_up_24px" d="M20.965,6l3.1,3.1-6.611,6.611-5.418-5.418L2,20.345l1.91,1.91,8.128-8.128,5.418,5.418,8.534-8.521,3.1,3.1V6Z" transform="translate(-1.831 -6)" fill="#c9c9c9" stroke="#161616" stroke-width="1"/>
    <g id="Path_110" data-name="Path 110" transform="translate(-1091.875 -586.518)" fill="none">
      <path d="M1091.875,609.546l10.753-10.753,5.419,5.419L1116.26,596l5.5,5.5v12.954h-29.889Z" stroke="none"/>
      <path d="M 1119.763916015625 612.456787109375 L 1119.763916015625 602.3312377929688 L 1116.260498046875 598.8279418945312 L 1109.46142578125 605.6270751953125 L 1108.047241210938 607.0413208007812 L 1106.633056640625 605.6271362304688 L 1102.627807617188 601.6219482421875 L 1093.875 610.3746948242188 L 1093.875 612.456787109375 L 1119.763916015625 612.456787109375 M 1121.763916015625 614.456787109375 L 1091.875 614.456787109375 L 1091.875 609.5462646484375 L 1102.627807617188 598.7935180664062 L 1108.047241210938 604.212890625 L 1116.260498046875 595.99951171875 L 1121.763916015625 601.5028076171875 L 1121.763916015625 614.456787109375 Z" stroke="none" fill="#c9c9c9"/>
    </g>
  </g>
</svg>
