<svg xmlns="http://www.w3.org/2000/svg" width="17.956" height="32.289" viewBox="0 0 17.956 32.289">
  <path id="Path_945" data-name="Path 945" d="M745.055-273.488v25.99a3.107,3.107,0,0,0,3.053,3.15h11.851a3.107,3.107,0,0,0,3.052-3.15v-25.99a3.107,3.107,0,0,0-3.053-3.15H748.107A3.107,3.107,0,0,0,745.055-273.488Zm8.985,28.223h-.007a1.475,1.475,0,0,1-1.368-.872,1.554,1.554,0,0,1,1.8-2.187,1.519,1.519,0,0,1,1.018,1.05A1.553,1.553,0,0,1,754.04-245.265Zm-5.9-28.8h11.778a.79.79,0,0,1,.778.8v23.162a.79.79,0,0,1-.778.8H748.144a.79.79,0,0,1-.778-.8v-23.162A.79.79,0,0,1,748.144-274.07Z" transform="translate(-745.055 276.638)" fill="#c9c9c9"/>
</svg>
