<svg xmlns="http://www.w3.org/2000/svg" width="20" height="20" viewBox="0 0 20 20">
  <path id="Subtraction_5" data-name="Subtraction 5" d="M10,20A10,10,0,0,1,6.108.786a10,10,0,0,1,7.785,18.428A9.937,9.937,0,0,1,10,20ZM4.463,8.431v4.978a2.062,2.062,0,0,0,.3,1.079,2.25,2.25,0,0,0,.793.787,2.009,2.009,0,0,0,1.033.28h6.776a2.132,2.132,0,0,0,1.079-.286,2.157,2.157,0,0,0,.787-.781,2.1,2.1,0,0,0,.292-1.079V8.418H12.311a3.092,3.092,0,0,1,.5,1.409,2.874,2.874,0,0,1-.216,1.32,2.711,2.711,0,0,1-.711,1.016,2.785,2.785,0,0,1-1.067.6,2.881,2.881,0,0,1-.825.122,2.94,2.94,0,0,1-.388-.026A2.888,2.888,0,0,1,7.321,11a2.807,2.807,0,0,1,.356-2.565Zm5.53-.558a2.141,2.141,0,0,0-1.1.3,2.207,2.207,0,0,0-.8.8,2.187,2.187,0,0,0,0,2.184,2.114,2.114,0,0,0,.8.787,2.227,2.227,0,0,0,1.1.286,2.164,2.164,0,0,0,1.086-.286,2.175,2.175,0,0,0,.794-2.971,2.226,2.226,0,0,0-.794-.8A2.108,2.108,0,0,0,9.994,7.873ZM10,7.226h0a2.783,2.783,0,0,1,.686.087A2.934,2.934,0,0,1,11.943,8a.22.22,0,0,0,.178.076h3.4c0,.019,0,.024,0,.025s0-.058.013-.8c0-.287,0-.544-.013-.762A2.048,2.048,0,0,0,15.213,5.5a2.259,2.259,0,0,0-.787-.768,2.079,2.079,0,0,0-1.06-.285H7.359V7.187H6.9V4.456H6.609v2.73H6.152V4.507l-.114.025a.507.507,0,0,0-.178.082.337.337,0,0,0-.025.171v2.4H5.391V4.862l-.051.013a2.066,2.066,0,0,0-.851,1.537A5.673,5.673,0,0,0,4.463,7c0,.411,0,.61.009.61a.074.074,0,0,0,0-.026v.483l.063.013H7.9a.184.184,0,0,0,.127-.063A2.99,2.99,0,0,1,9.289,7.32,2.789,2.789,0,0,1,10,7.226Zm-.006,4.444a1.539,1.539,0,0,1-.806-.222,1.66,1.66,0,0,1-.584-.591,1.615,1.615,0,0,1,0-1.613,1.618,1.618,0,0,1,.584-.584,1.615,1.615,0,0,1,1.613,0,1.625,1.625,0,0,1,.8,1.4,1.581,1.581,0,0,1-.216.812,1.617,1.617,0,0,1-.584.584A1.573,1.573,0,0,1,9.994,11.669Zm4.171-4.406H13a.337.337,0,0,1-.248-.1.352.352,0,0,1-.1-.26V5.739a.393.393,0,0,1,.089-.267.321.321,0,0,1,.254-.1c.194,0,.393-.006.593-.006s.4,0,.587.006a.337.337,0,0,1,.248.1.353.353,0,0,1,.1.26V6.908a.329.329,0,0,1-.355.355Z" fill="#dfdfdf"/>
</svg>
