<svg xmlns="http://www.w3.org/2000/svg" width="20" height="20" viewBox="0 0 20 20">
  <path id="Subtraction_2" data-name="Subtraction 2" d="M10,20A10,10,0,0,1,6.108.786a10,10,0,0,1,7.785,18.428A9.937,9.937,0,0,1,10,20ZM5.3,4.445a.809.809,0,0,0-.584.235.764.764,0,0,0-.241.565v9.524a.742.742,0,0,0,.241.559.8.8,0,0,0,.571.229h9.422a.806.806,0,0,0,.571-.229.743.743,0,0,0,.241-.559V5.244a.765.765,0,0,0-.241-.565.81.81,0,0,0-.584-.235Zm5.117,9.308H8.755V11.416c.008-1.584.008-2.486,0-2.679h1.664v.711a1.972,1.972,0,0,1,.5-.546,1.774,1.774,0,0,1,1-.279,1.791,1.791,0,0,1,1.371.546,2.443,2.443,0,0,1,.546,1.7v2.882H12.171V11.061a1.486,1.486,0,0,0-.191-.813.734.734,0,0,0-.647-.317.848.848,0,0,0-.559.191,1.02,1.02,0,0,0-.3.419,1.263,1.263,0,0,0-.051.406v2.806Zm-2.591,0H6.165V8.737H7.829v5.015Zm-.836-5.7H6.978a.908.908,0,0,1-.66-.248.836.836,0,0,1-.254-.622.828.828,0,0,1,.26-.622A.951.951,0,0,1,7,6.311a.929.929,0,0,1,.673.247.889.889,0,0,1,0,1.245A.941.941,0,0,1,6.992,8.051Z" fill="#dfdfdf"/>
</svg>
