<svg xmlns="http://www.w3.org/2000/svg" width="20" height="20" viewBox="0 0 20 20">
  <path id="Subtraction_4" data-name="Subtraction 4" d="M10,20A10,10,0,0,1,6.108.786a10,10,0,0,1,7.785,18.428A9.939,9.939,0,0,1,10,20ZM9.968,4.445a5.86,5.86,0,0,0-2.781.711A5.283,5.283,0,0,0,5.206,7a4.81,4.81,0,0,0-.762,2.6A4.746,4.746,0,0,0,5,11.848,5.331,5.331,0,0,0,6.5,13.6v1.968l1.879-1.041a5.919,5.919,0,0,0,1.587.216,5.667,5.667,0,0,0,2.781-.711,5.15,5.15,0,0,0,1.981-1.841A4.749,4.749,0,0,0,15.492,9.6,4.81,4.81,0,0,0,14.731,7a5.278,5.278,0,0,0-1.981-1.841,5.751,5.751,0,0,0-2.781-.7ZM6.361,11.378h0L9.384,8.153l1.448,1.511,2.705-1.511-3.023,3.225-1.4-1.511Z" fill="#dfdfdf"/>
</svg>
