<svg xmlns="http://www.w3.org/2000/svg" width="20" height="20" viewBox="0 0 20 20">
  <path id="Subtraction_1" data-name="Subtraction 1" d="M10,20A10,10,0,0,1,6.108.786a10,10,0,0,1,7.785,18.428A9.939,9.939,0,0,1,10,20ZM4.438,13.5h0a6.348,6.348,0,0,0,1.651.749,6.533,6.533,0,0,0,1.854.267,6.658,6.658,0,0,0,2.781-.584,6.2,6.2,0,0,0,2.032-1.524A6.844,6.844,0,0,0,14,10.324a6.628,6.628,0,0,0,.419-2.286V7.746a4.8,4.8,0,0,0,1.143-1.194,4.644,4.644,0,0,1-1.321.368,2.354,2.354,0,0,0,.616-.539,2.219,2.219,0,0,0,.387-.73A4.462,4.462,0,0,1,13.8,6.21a2.26,2.26,0,0,0-1.663-.724A2.206,2.206,0,0,0,11,5.8a2.311,2.311,0,0,0-.832.832,2.234,2.234,0,0,0-.3,1.143,2.648,2.648,0,0,0,.051.521,6.454,6.454,0,0,1-2.629-.711A6.524,6.524,0,0,1,5.213,5.9a2.278,2.278,0,0,0-.3,1.143,2.242,2.242,0,0,0,.273,1.086,2.31,2.31,0,0,0,.743.819A2.145,2.145,0,0,1,4.883,8.66V8.7a2.392,2.392,0,0,0,.247,1.01,2.277,2.277,0,0,0,.654.8,2.218,2.218,0,0,0,.927.425,2.361,2.361,0,0,1-.6.076,2.278,2.278,0,0,1-.419-.038A2.212,2.212,0,0,0,6.5,12.1a2.29,2.29,0,0,0,1.321.463A4.766,4.766,0,0,1,6.5,13.27a4.556,4.556,0,0,1-1.511.254C4.8,13.524,4.613,13.516,4.438,13.5Z" fill="#dfdfdf"/>
</svg>
