<svg xmlns="http://www.w3.org/2000/svg" width="1270.73" height="992.377" viewBox="0 0 1270.73 992.377">
  <g id="Group_19034" data-name="Group 19034" transform="translate(-2983.505 -495.984)" opacity="0.2">
    <g id="Group_19027" data-name="Group 19027" transform="translate(3830.729 721.688)">
      <path id="Path_19574" data-name="Path 19574" d="M3439.584,1289.063H3150.82a66.947,66.947,0,0,1-66.871-66.868V583.544a60.227,60.227,0,0,1,60.157-60.154H3446.3a60.22,60.22,0,0,1,60.154,60.154v638.651A66.945,66.945,0,0,1,3439.584,1289.063ZM3144.107,540.741a42.856,42.856,0,0,0-42.8,42.8v638.651a49.569,49.569,0,0,0,49.517,49.517h288.764a49.569,49.569,0,0,0,49.517-49.517V583.544a42.85,42.85,0,0,0-42.8-42.8Z" transform="translate(-3083.949 -523.39)" fill="none" stroke="#707070" stroke-width="2"/>
    </g>
    <g id="Group_19028" data-name="Group 19028" transform="translate(2993.911 496.984)">
      <path id="Path_19575" data-name="Path 19575" d="M3781.148,1271.337H3056.821a71.288,71.288,0,0,1-71.211-71.208V561.477a64.567,64.567,0,0,1,64.494-64.493h936.632a64.567,64.567,0,0,1,64.494,64.493V672.231H4025.2V561.477a38.5,38.5,0,0,0-38.463-38.462H3050.1a38.508,38.508,0,0,0-38.47,38.462v638.652a45.234,45.234,0,0,0,45.187,45.177h724.327Z" transform="translate(-2985.609 -496.984)" fill="none" stroke="#707070" stroke-width="2"/>
    </g>
    <g id="Group_19029" data-name="Group 19029" transform="translate(3888.273 776.421)">
      <path id="Path_19576" data-name="Path 19576" d="M3398.14,1146.049Zm-301.05-6.381h294.67V536.2H3097.09Z" transform="translate(-3090.711 -529.822)" fill="none" stroke="#707070" stroke-width="2"/>
    </g>
    <g id="Group_19030" data-name="Group 19030" transform="translate(4013.483 1402.758)">
      <path id="Path_19577" data-name="Path 19577" d="M3133.934,660.43a28.5,28.5,0,1,1,28.5-28.5A28.535,28.535,0,0,1,3133.934,660.43Z" transform="translate(-3105.426 -603.426)" fill="none" stroke="#707070" stroke-width="2"/>
    </g>
    <g id="Group_19031" data-name="Group 19031" transform="translate(2984.505 1287.411)">
      <path id="Path_19578" data-name="Path 19578" d="M3784.982,590.117a45.427,45.427,0,0,0-4.714-.247H3030.413a45.909,45.909,0,0,0,0,91.818h749.856a45.691,45.691,0,0,0,4.714-.238Z" transform="translate(-2984.504 -589.871)" fill="none" stroke="#707070" stroke-width="2"/>
    </g>
    <g id="Group_19032" data-name="Group 19032" transform="translate(3354.071 687.782)">
      <path id="Path_19579" data-name="Path 19579" d="M3160.067,803.595,3031.272,660.489a13.016,13.016,0,1,1,19.354-17.411l109.933,122.155L3389.6,523.469a13.009,13.009,0,1,1,18.887,17.9Z" transform="translate(-3027.933 -519.406)" fill="none" stroke="#707070" stroke-width="2"/>
    </g>
    <g id="Group_19033" data-name="Group 19033" transform="translate(3928.914 987.731)">
      <path id="Path_19580" data-name="Path 19580" d="M3171.147,717.39,3097.4,635.443a7.451,7.451,0,0,1,11.072-9.973l62.954,69.957,131.16-138.451a7.454,7.454,0,1,1,10.82,10.254Z" transform="translate(-3095.487 -554.654)" fill="none" stroke="#707070" stroke-width="2"/>
    </g>
  </g>
</svg>

