<svg xmlns="http://www.w3.org/2000/svg" width="650.028" height="1002.78" viewBox="0 0 650.028 1002.78">
  <g id="Group_19451" data-name="Group 19451" transform="translate(-635 -1458.26)">
    <path id="Path_19585" data-name="Path 19585" d="M4376.769,847.6a83.5,83.5,0,1,1-83.5,83.492,83.6,83.6,0,0,1,83.5-83.492Zm-66.16,299.467,33.988,72.584,32.172-138.131,32.194,138.131,33.959-72.584,63.822,49.8-47.473-193.533c.518-.581,1.023-1.181,1.519-1.779.447-.533.883-1.078,1.322-1.622.618-.769,1.254-1.532,1.85-2.324.153-.206.306-.411.458-.612.246-.325.491-.646.733-.973l.146-.2c.439-.6.882-1.193,1.314-1.81V994c.521-.744,1.042-1.495,1.552-2.251l.094-.152c.26-.4.51-.823.777-1.229a109.868,109.868,0,0,0,10.23-20.069v-.019c.3-.792.6-1.61.9-2.432.254-.745.511-1.484.752-2.228.108-.309.209-.617.306-.932l.06-.169.074-.236.131-.387c.23-.739.461-1.477.67-2.221v-.012c.283-.968.559-1.955.815-2.936a109.617,109.617,0,0,0-18.286-93.157l-.094-.121.071.092c-.212-.285-.429-.582-.647-.873l.011.007c-.458-.593-.938-1.18-1.4-1.767l.044.055c-.335-.412-.647-.83-.99-1.241l.008.012c-.446-.552-.912-1.089-1.374-1.629l.034.043c-.306-.363-.614-.732-.931-1.1l-.153-.181-.015-.012.015.007c-.469-.521-.934-1.023-1.4-1.538-.19-.212-.384-.417-.573-.629s-.38-.419-.569-.617l.011.012c-.462-.5-.945-.987-1.415-1.471l.03.029-.838-.853c-.13-.133-.265-.267-.4-.4l-.015-.018.011.011c-.477-.465-.952-.931-1.429-1.391l.025.024-.037-.03c-.421-.406-.834-.8-1.262-1.2l-.026-.019.019.012c-.473-.442-.956-.878-1.44-1.313h0l-.03-.024c-.436-.394-.882-.782-1.325-1.168l-.026-.024.008.012c-.48-.423-.979-.841-1.471-1.258l-.015-.007-.3-.254c-.368-.3-.733-.611-1.109-.914l.03.024c-.5-.4-1.017-.811-1.522-1.21-.31-.242-.618-.471-.924-.708-.183-.145-.368-.284-.559-.43l.038.03c-.518-.387-1.028-.775-1.553-1.156l.029.019c-.189-.14-.383-.273-.58-.412-.316-.223-.633-.454-.957-.677l-.037-.031,0,.007c-.507-.352-1.013-.709-1.526-1.06h0c-.518-.352-1.046-.7-1.579-1.041l-.056-.036.019.012q-.759-.5-1.522-.98h.008l-.022-.012c-.246-.157-.5-.309-.744-.459-.336-.2-.652-.4-.987-.6l.075.048c-.514-.314-1.031-.629-1.557-.937l.012.007-.016-.012c-.238-.134-.479-.267-.715-.4-.383-.212-.767-.436-1.153-.647l.111.066c-.506-.29-1.017-.58-1.53-.859l.012.007-.022-.007c-.637-.345-1.292-.671-1.936-1l-.213-.109.108.06c-.439-.224-.875-.461-1.318-.678l.008.007-.011-.013c-.916-.448-1.843-.877-2.767-1.306l-.119-.05c-.171-.084-.346-.169-.521-.247-.9-.407-1.794-.793-2.691-1.175l.094.042-.1-.042q-2.212-.925-4.472-1.749c-.183-.072-.361-.14-.543-.205-1.448-.528-2.923-1.017-4.4-1.484-.257-.085-.518-.169-.778-.247q-2.161-.664-4.366-1.241c-.3-.079-.6-.157-.894-.229-1.467-.37-2.934-.709-4.412-1.018-.309-.066-.614-.127-.931-.188-1.492-.3-2.989-.568-4.508-.81l-.886-.128q-2.317-.345-4.661-.592c-.257-.031-.506-.049-.756-.074q-2.429-.236-4.888-.375l-.525-.019c-1.7-.085-3.409-.132-5.133-.132h-.086a109.1,109.1,0,0,0-47.405,10.772l-.131.06c-.354.17-.7.37-1.057.54-.935.471-1.861.943-2.781,1.44-.391.2-.774.411-1.161.63-.916.5-1.806.993-2.691,1.524-1.1.642-2.171,1.284-3.225,1.95-1.068.684-2.11,1.367-3.152,2.07-.9.611-1.791,1.234-2.673,1.876l-.38.273c-.354.26-.692.515-1.054.787-.283.211-.562.423-.849.653-.433.315-.864.642-1.284.987s-.853.684-1.285,1.034c-.179.146-.364.3-.543.448l-.1.085c-.272.212-.548.442-.815.666-.369.314-.741.629-1.1.944l-.189.176c-.175.145-.339.284-.5.436a2.461,2.461,0,0,0-.4.357l-.388.339c-.224.188-.439.388-.655.6-.216.188-.439.388-.655.6s-.442.4-.666.63c-.257.224-.528.485-.782.739-.23.2-.442.411-.662.63-.369.357-.723.713-1.08,1.084-.383.369-.752.756-1.139,1.137-.31.315-.6.63-.9.956-.428.442-.853.9-1.266,1.355-.261.267-.514.551-.756.842-.655.708-1.284,1.434-1.909,2.178l-.261.3c-.577.7-1.146,1.4-1.728,2.113l-.208.271c-.268.31-.514.642-.771.97l-.3.38c-.454.588-.9,1.169-1.336,1.768l-.242.326c-.6.817-1.206,1.64-1.771,2.482-.146.188-.283.387-.41.568-.1.157-.216.314-.316.484s-.212.333-.309.49a3.574,3.574,0,0,0-.332.483c-.257.381-.51.769-.752,1.168a6.142,6.142,0,0,0-.361.538c-.2.3-.38.6-.573.914l-.425.685c-.793,1.294-1.549,2.607-2.293,3.945-.171.315-.357.642-.529.957-.212.387-.41.768-.607,1.155-.093.17-.189.34-.279.509-.395.744-.763,1.5-1.139,2.258-.183.369-.365.751-.551,1.137-.056.14-.131.285-.205.43-.312.666-.629,1.337-.923,2.021-.413.914-.808,1.822-1.187,2.748-.242.587-.488,1.175-.708,1.767a6.122,6.122,0,0,0-.257.671l-.424,1.115c-.134.326-.264.653-.376.979-.1.274-.2.546-.283.8-.246.684-.466,1.368-.7,2.052-.271.829-.543,1.67-.8,2.511s-.514,1.695-.733,2.536c-.246.854-.48,1.707-.689,2.566l-.342,1.41c-.1.382-.19.78-.276,1.181-.2.859-.376,1.725-.57,2.6-.182.927-.354,1.84-.51,2.766-.134.739-.242,1.483-.354,2.222-.067.454-.146.913-.2,1.386-.126.835-.246,1.676-.328,2.536l-.015.085c-.044.411-.1.823-.145,1.241-.1,1.053-.194,2.094-.265,3.147-.074.914-.126,1.828-.175,2.737-.045.725-.071,1.471-.086,2.208-.041,1.1-.056,2.2-.056,3.312a111.042,111.042,0,0,0,1.169,16.062c.13.908.283,1.822.439,2.718.1.63.212,1.24.342,1.852.071.417.142.829.25,1.229.082.5.2,1,.305,1.5q.3,1.434.659,2.868c.242.993.5,2.009.786,3,.07.243.145.5.212.745.227.823.469,1.64.733,2.451a5.74,5.74,0,0,0,.179.581c.313,1.017.64,2.009,1,3.007q1.117,3.215,2.423,6.32c.871,2.075,1.794,4.115,2.8,6.124.979,2.009,2.036,3.977,3.146,5.913.555.968,1.128,1.925,1.709,2.869,1.169,1.907,2.383,3.759,3.663,5.586.644.9,1.3,1.792,1.955,2.693.667.885,1.34,1.767,2.04,2.633l-44.051,197.625,63.819-49.8Z" transform="translate(-3416.752 1238.345)" fill="none" stroke="#707070" stroke-width="2"/>
    <path id="Path_19588" data-name="Path 19588" d="M4312.694,882.274l11.559-23.416,11.544,23.416,25.843,3.746-18.7,18.229L4347.185,929c-.238.174-.5.326-.741.5l-22.191-11.675-22.288,11.718c-.231-.157-.455-.3-.67-.442l4.259-24.857-18.692-18.229,25.832-3.746Zm11.481,80.1A66.963,66.963,0,1,0,4257.2,895.4a66.964,66.964,0,0,0,66.979,66.969Z" transform="translate(-3364.156 1274.039)" fill="none" stroke="#707070" stroke-width="2"/>
    <path id="Path_19589" data-name="Path 19589" d="M4765.141,1543.5H4659.9l-4.676-17.836,3.361-4.636a146.287,146.287,0,0,0,27.9-86.476c0-81.469-66.275-147.748-147.748-147.748s-147.755,66.279-147.755,147.748a146.314,146.314,0,0,0,27.969,86.566l3.362,4.63-4.642,17.751H4312.341a97.729,97.729,0,0,1-97.614-97.617v-626.1a97.729,97.729,0,0,1,97.614-97.617h452.8a97.729,97.729,0,0,1,97.614,97.617v626.1A97.729,97.729,0,0,1,4765.141,1543.5Zm-76.674-24.208h76.674a73.5,73.5,0,0,0,73.4-73.409v-626.1a73.5,73.5,0,0,0-73.4-73.409h-452.8a73.489,73.489,0,0,0-73.405,73.409v626.1a73.489,73.489,0,0,0,73.405,73.409h76.666a170.65,170.65,0,0,1-22.236-84.739c0-94.821,77.139-171.957,171.968-171.957s171.96,77.136,171.96,171.957A170.659,170.659,0,0,1,4688.467,1519.3Z" transform="translate(-3578.727 737.093)" fill="none" stroke="#707070" stroke-width="2"/>
    <rect id="Rectangle_31" data-name="Rectangle 31" width="349.687" height="16.139" transform="translate(785.172 1609.439)" fill="none" stroke="#707070" stroke-width="2"/>
    <rect id="Rectangle_32" data-name="Rectangle 32" width="349.687" height="16.139" transform="translate(785.172 1690.137)" fill="none" stroke="#707070" stroke-width="2"/>
    <rect id="Rectangle_33" data-name="Rectangle 33" width="349.687" height="16.139" transform="translate(785.172 1760.073)" fill="none" stroke="#707070" stroke-width="2"/>
    <rect id="Rectangle_34" data-name="Rectangle 34" width="110.248" height="16.139" transform="translate(785.172 1846.15)" fill="none" stroke="#707070" stroke-width="2"/>
    <rect id="Rectangle_35" data-name="Rectangle 35" width="110.248" height="16.139" transform="translate(1024.608 1846.15)" fill="none" stroke="#707070" stroke-width="2"/>
  </g>
</svg>
