<svg xmlns="http://www.w3.org/2000/svg" width="1169.803" height="995.998" viewBox="0 0 1169.803 995.998">
  <g id="Group_19446" data-name="Group 19446" transform="translate(-2563.82 -486.494)" opacity="0.3">
    <path id="Path_19567" data-name="Path 19567" d="M2723.365,538.888a91.493,91.493,0,1,0,91.484,91.5A91.5,91.5,0,0,0,2723.365,538.888Z" transform="translate(530.42 406.551)" fill="none" stroke="#707070" stroke-width="2"/>
    <path id="Path_19568" data-name="Path 19568" d="M2711.026,590.276a42.4,42.4,0,1,0-42.4-42.4A42.391,42.391,0,0,0,2711.026,590.276Z" transform="translate(821.114 142.302)" fill="none" stroke="#707070" stroke-width="2"/>
    <path id="Path_19569" data-name="Path 19569" d="M3650.643,1317.522a81.665,81.665,0,0,0-51.425,18.15l-212.637-181.906a176.75,176.75,0,0,0-16.1-249.743l121.271-142.5a82.117,82.117,0,1,0-22.1-18.294L3347.42,886.843a177,177,0,0,0-178.176-5.346L3002.191,629.126a81.623,81.623,0,1,0-23.966,15.745l167.04,252.4a177.172,177.172,0,0,0-60.045,85.888L2727.874,879.332a81.986,81.986,0,1,0-9.2,27.2l360.091,104.618a178.433,178.433,0,0,0-1.893,25.787,175.95,175.95,0,0,0,29.267,97.409l-287.06,196.476a81.625,81.625,0,1,0,15.568,24.1l287.973-197.1-8.3-12.117a176.83,176.83,0,0,0,251.555,28.086l214.493,183.493a81.982,81.982,0,1,0,70.277-39.767ZM3468.157,690.18a63.985,63.985,0,1,1,63.985,64A63.984,63.984,0,0,1,3468.157,690.18Zm-522.172-56.715a63.986,63.986,0,1,1,63.985-63.986A63.977,63.977,0,0,1,2945.986,633.465ZM2646.815,931.048a63.986,63.986,0,1,1,63.985-63.995A64,64,0,0,1,2646.815,931.048ZM2759,1450.581a63.986,63.986,0,1,1,63.987-63.986A63.984,63.984,0,0,1,2759,1450.581Zm494.79-275.564a138.081,138.081,0,1,1,138.077-138.077A138.08,138.08,0,0,1,3253.788,1175.017ZM3650.643,1463.5a63.991,63.991,0,1,1,63.994-64A63.992,63.992,0,0,1,3650.643,1463.5Z" transform="translate(-0.002 0)" fill="none" stroke="#707070" stroke-width="2"/>
    <path id="Path_19570" data-name="Path 19570" d="M2724.307,585.089a42.4,42.4,0,1,0,42.4,42.4A42.4,42.4,0,0,0,2724.307,585.089Z" transform="translate(926.332 772.021)" fill="none" stroke="#707070" stroke-width="2"/>
    <path id="Path_19571" data-name="Path 19571" d="M2624.25,583.64a42.4,42.4,0,1,0,42.4,42.4A42.392,42.392,0,0,0,2624.25,583.64Z" transform="translate(134.747 760.56)" fill="none" stroke="#707070" stroke-width="2"/>
    <path id="Path_19572" data-name="Path 19572" d="M2611.66,525.334a42.4,42.4,0,1,0,42.4,42.4A42.4,42.4,0,0,0,2611.66,525.334Z" transform="translate(35.153 299.332)" fill="none" stroke="#707070" stroke-width="2"/>
    <path id="Path_19573" data-name="Path 19573" d="M2645.234,491.937a42.4,42.4,0,1,0,42.4,42.4A42.392,42.392,0,0,0,2645.234,491.937Z" transform="translate(300.748 35.146)" fill="none" stroke="#707070" stroke-width="2"/>
  </g>
</svg>
