<svg xmlns="http://www.w3.org/2000/svg" width="858.645" height="1111.801" viewBox="0 0 858.645 1111.801">
  <g id="Group_19035" data-name="Group 19035" transform="translate(-3441.687 -479.833)" opacity="0.2">
    <path id="Path_19581" data-name="Path 19581" d="M4299.331,666.462c-3.91.064-10.086.128-14.021.128-188.7,0-349.813-76.679-414.295-184.805-64.484,108.127-225.6,184.805-414.294,184.805-3.941,0-10.112-.065-14.033-.128,0,7.708.2,400.93.2,426.795-1.289,115.066,49.078,343.377,428.03,497.279l.1-.048.1.048c378.949-153.9,429.319-382.213,428.027-497.279C4299.137,1067.392,4299.331,674.17,4299.331,666.462Zm-44,66.958-.005,12.564-.011,13.381-.048,117.573c-.056,105.2-.1,206.8-.1,220.092v.97c1.16,103.935-45.913,300.279-374.25,447.442l-9.9,4.439-9.893-4.439C3532.788,1398.28,3485.7,1201.936,3486.861,1098v-.97c0-13.292-.048-114.89-.106-220.092l-.057-117.565v-13.4l0-12.556V711.78l21.5-2.411c135.9-15.216,259.25-63.947,347.353-137.212l15.468-12.868,15.477,12.868c88.106,73.273,211.452,122,347.333,137.212l21.507,2.411Z" transform="translate(0 0)" fill="none" stroke="#707070" stroke-width="2" fill-rule="evenodd"/>
    <path id="Path_19582" data-name="Path 19582" d="M3517.857,722.267V637.1a116.734,116.734,0,0,1,233.467,0v85.163H3702V637.1a67.411,67.411,0,0,0-134.822,0v85.163Zm274.88,15.552h-316.3c0,116.372-.034,219.1-.034,219.37,0,28.164,89.331,72.753,158.189,73.13,68.844-.376,158.177-44.965,158.177-73.13C3792.768,956.917,3792.749,854.19,3792.737,737.818Zm-132.345,199.2h-51.6l14.42-64.724a32.631,32.631,0,1,1,22.749,0Z" transform="translate(236.422 270.579)" fill="none" stroke="#707070" stroke-width="2" fill-rule="evenodd"/>
  </g>
</svg>
