<svg xmlns="http://www.w3.org/2000/svg" width="33" height="33" viewBox="0 0 33 33">
  <path id="Subtraction_7" data-name="Subtraction 7" d="M16.5,33A16.5,16.5,0,0,1,10.077,1.3,16.5,16.5,0,0,1,22.923,31.7,16.4,16.4,0,0,1,16.5,33ZM8.748,7.334a1.335,1.335,0,0,0-.964.387,1.261,1.261,0,0,0-.4.932V24.367a1.224,1.224,0,0,0,.4.922,1.327,1.327,0,0,0,.943.378H24.273a1.33,1.33,0,0,0,.943-.378,1.226,1.226,0,0,0,.4-.922V8.653a1.262,1.262,0,0,0-.4-.932,1.337,1.337,0,0,0-.964-.387Zm8.444,15.358H14.446V18.837c.014-2.614.014-4.1,0-4.421h2.745v1.173a3.254,3.254,0,0,1,.817-.9,2.928,2.928,0,0,1,1.655-.461,2.955,2.955,0,0,1,2.263.9,4.031,4.031,0,0,1,.9,2.807v4.756H20.083V18.25a2.452,2.452,0,0,0-.314-1.341,1.212,1.212,0,0,0-1.068-.524,1.4,1.4,0,0,0-.922.314,1.683,1.683,0,0,0-.5.691,2.083,2.083,0,0,0-.083.67v4.63Zm-4.274,0H10.172V14.415h2.745v8.275Zm-1.38-9.408h-.024a1.5,1.5,0,0,1-1.089-.409A1.38,1.38,0,0,1,10,11.848a1.366,1.366,0,0,1,.429-1.027,1.569,1.569,0,0,1,1.121-.408,1.533,1.533,0,0,1,1.111.408,1.467,1.467,0,0,1,0,2.054A1.553,1.553,0,0,1,11.537,13.283Z" fill="#dfdfdf"/>
</svg>
