<svg xmlns="http://www.w3.org/2000/svg" width="50.982" height="32.839" viewBox="0 0 50.982 32.839">
  <g id="Group_18523" data-name="Group 18523" transform="translate(-992.368 -1375.556)">
    <path id="Path_18751" data-name="Path 18751" d="M1305.73,1443.13a3.493,3.493,0,0,1-1.65.7,31.168,31.168,0,0,1-6,.935c-.232.016-.3-.049-.284-.274a3.9,3.9,0,0,0-1.511-3.438,10.566,10.566,0,0,0-1.232-.893,35.958,35.958,0,0,0-3.7-1.884l-2.132-1c-.045-.021-.105-.025-.1-.092s.059-.078.106-.1a7.693,7.693,0,0,0,2.441-1.75.717.717,0,0,0,.16-.891,8.776,8.776,0,0,1-.471-1.094,1.648,1.648,0,0,0-.36-.516,3.733,3.733,0,0,1-1.127-2.819.67.67,0,0,1,.024-.227,4.5,4.5,0,0,0,.195-2.053,4.8,4.8,0,0,1,3.554-4.546,4.193,4.193,0,0,1,3.294.345,3.2,3.2,0,0,0,.9.241,1.9,1.9,0,0,1,1.4,1.372,4.42,4.42,0,0,1,.2,1.174c.027.371.087.74.141,1.108a6.834,6.834,0,0,1,.057.709,6.632,6.632,0,0,0,.186,1.523,2.989,2.989,0,0,1-.547,2.526,2.022,2.022,0,0,1-.322.425c-.6.508-.706,1.278-1.038,1.925a.639.639,0,0,0,.195.815,8.8,8.8,0,0,0,2.126,1.594c1.106.507,2.221,1,3.315,1.527a9,9,0,0,1,1.513.927,3.063,3.063,0,0,1,.665.727Z" transform="translate(-262.38 -41.949)" fill="#f6f6f6"/>
    <path id="Path_18752" data-name="Path 18752" d="M1087.134,1408.393a59.928,59.928,0,0,1-6.353-.325,43.785,43.785,0,0,1-5.817-.952c-.972-.234-1.931-.506-2.875-.832a1.279,1.279,0,0,1-.9-1.228c-.01-1-.005-2,0-3a1.875,1.875,0,0,1,.487-1.226,7.835,7.835,0,0,1,2.316-1.71c1.358-.742,2.788-1.334,4.189-1.988a18.83,18.83,0,0,0,2.059-.978,16.617,16.617,0,0,0,2.794-2.313.266.266,0,0,0,.1-.2,1.883,1.883,0,0,0-.211-1.076,7.759,7.759,0,0,1-.59-1.427,1.705,1.705,0,0,0-.366-.6,6.77,6.77,0,0,1-1.483-2.138,4.124,4.124,0,0,1-.242-3.021,4.175,4.175,0,0,0,.185-1.441,22.844,22.844,0,0,1,.068-2.364,6.016,6.016,0,0,1,1.315-3.036,7.867,7.867,0,0,1,4.483-2.827,6.843,6.843,0,0,1,2.3-.1,3.726,3.726,0,0,1,1.524.493,5.781,5.781,0,0,0,1.906.654,2.74,2.74,0,0,1,2.072,1.959,4.738,4.738,0,0,1,.3,1.539c.025.8.266,1.572.292,2.371.013.407.054.813.065,1.219a5.6,5.6,0,0,0,.216,1.566,4.46,4.46,0,0,1-.534,3.566,5.244,5.244,0,0,1-.914,1.247,3.232,3.232,0,0,0-.818,1.348,6.512,6.512,0,0,1-.513,1.184,1.777,1.777,0,0,0-.105.947c0,.064.052.1.094.145a16.43,16.43,0,0,0,2.818,2.325,22.575,22.575,0,0,0,2.222,1.048c1.513.711,3.068,1.34,4.51,2.195a6.841,6.841,0,0,1,1.776,1.384,2.019,2.019,0,0,1,.52,1.368c-.007.865,0,1.731,0,2.6a1.4,1.4,0,0,1-1.174,1.618,33.305,33.305,0,0,1-5.6,1.323A63.647,63.647,0,0,1,1087.134,1408.393Z" transform="translate(-69.689)" fill="#f6f6f6"/>
    <path id="Path_18753" data-name="Path 18753" d="M992.386,1441.573a5.983,5.983,0,0,0-.006-.788,1.334,1.334,0,0,1,.542-1.2,8.4,8.4,0,0,1,2.174-1.338c1.057-.491,2.125-.962,3.169-1.48a7.905,7.905,0,0,0,1.993-1.6.569.569,0,0,0,.034-.668c-.2-.438-.343-.906-.578-1.323-.2-.349-.512-.63-.745-.962a2.887,2.887,0,0,1-.586-2.537,12,12,0,0,0,.181-2.492,4.039,4.039,0,0,1,.814-2.127,5.124,5.124,0,0,1,2.722-1.893,4.1,4.1,0,0,1,3.2.315,3.35,3.35,0,0,0,.948.268,1.867,1.867,0,0,1,1.488,1.615,18.8,18.8,0,0,1,.359,3.255,2.959,2.959,0,0,0,.135.869,2.98,2.98,0,0,1-.346,2.418,4.024,4.024,0,0,1-.634.855,2.289,2.289,0,0,0-.514.862,7.131,7.131,0,0,1-.327.742.76.76,0,0,0,.167.976,7.622,7.622,0,0,0,2.4,1.718c.047.019.1.033.1.1,0,.08-.074.078-.126.1-1.5.662-3,1.313-4.5,1.992a13.809,13.809,0,0,0-3.553,2.234,3.436,3.436,0,0,0-1.231,2.834c.022.474.059.407-.4.365a33.967,33.967,0,0,1-3.8-.549,17.247,17.247,0,0,1-2.543-.7.847.847,0,0,1-.547-.782Z" transform="translate(0 -41.928)" fill="#f6f6f6"/>
  </g>
</svg>
