<svg xmlns="http://www.w3.org/2000/svg" width="35.301" height="35.07" viewBox="0 0 35.301 35.07">
  <g id="Group_707" data-name="Group 707" transform="translate(-758.835 -501.511)">
    <rect id="Rectangle_17" data-name="Rectangle 17" width="2.841" height="2.841" rx="1.421" transform="translate(775.081 517.715)" fill="#f6f6f6"/>
    <path id="Path_983" data-name="Path 983" d="M789.451,529.617a.935.935,0,0,0,1.359-.163,17.652,17.652,0,1,0-17.092,7.118.935.935,0,0,0,1.065-.813l.131-1.139a.92.92,0,0,0-.77-1.02c-.282-.041-.565-.095-.84-.158a14.651,14.651,0,1,1,15.143-22.774,14.419,14.419,0,0,1-.059,16.949.918.918,0,0,0,.162,1.231Z" fill="#f6f6f6"/>
    <path id="Path_984" data-name="Path 984" d="M767.346,523.437a.934.934,0,0,0-.781,1.131,13.009,13.009,0,0,0,13.886,10.02c6.495-.5,11.721-6.224,11.745-13.729,0-.032,0-.065,0-.1a13.005,13.005,0,0,0-19.935-9.961.936.936,0,0,0-.246,1.366l.68.87a.92.92,0,0,0,1.252.19,9.192,9.192,0,0,1,7.512-1.258,9.956,9.956,0,0,1-1.94,19.657,9.757,9.757,0,0,1-9.975-7.63.921.921,0,0,0-1.027-.719Z" transform="translate(-2.739 -2.543)" fill="#f6f6f6"/>
    <path id="Path_985" data-name="Path 985" d="M775.891,527.243a.938.938,0,0,1-1.24-.63,4.986,4.986,0,0,1-.193-1.726,7.578,7.578,0,1,1,9.382,7.146.917.917,0,0,1-1.087-.8l-.151-1.206a.936.936,0,0,1,.69-1.011,4.4,4.4,0,0,0,3.177-5.529,4.656,4.656,0,0,0-5.771-3.215,4.422,4.422,0,0,0-3.077,5.43.931.931,0,0,1-.558,1.078Z" transform="translate(-5.548 -5.544)" fill="#f6f6f6"/>
  </g>
</svg>
