<svg xmlns="http://www.w3.org/2000/svg" width="35.742" height="35.883" viewBox="0 0 35.742 35.883">
  <path id="Path_18749" data-name="Path 18749" d="M940.081,1397.167a2.055,2.055,0,0,1-1.431-.967q-2.31-3.081-4.618-6.163c-3.7-4.937-7.522-10.042-11.3-15.051a1.942,1.942,0,0,1-.235-2.345c1.546-3.017,3.163-6.253,5.09-10.184a1.811,1.811,0,0,1,1.822-1.171h.033c1.375.014,2.875.02,4.723.02q1.495,0,2.99,0,1.47,0,2.939,0t2.942,0q1.473,0,2.945,0c1.829,0,3.314-.007,4.674-.021h.041a1.846,1.846,0,0,1,1.886,1.2c1.528,3.137,3.192,6.467,5.085,10.181a1.9,1.9,0,0,1-.2,2.274c-3.823,5.07-7.7,10.236-11.441,15.232q-2.268,3.026-4.538,6.052a2.008,2.008,0,0,1-1.4.943Zm-2.583-22.038a.91.91,0,0,0-.73.333.845.845,0,0,0-.109.742c.7,2.8,1.962,7.771,2.607,10.318a.834.834,0,0,0,1.617,0l.1-.38q.654-2.574,1.306-5.149.181-.716.357-1.436c.273-1.106.554-2.249.869-3.357a.811.811,0,0,0-.094-.721.879.879,0,0,0-.709-.344l-5.2-.007Zm9.932.008a.96.96,0,0,0-.956.883l-2.116,9.5a.664.664,0,0,0,.128.563.685.685,0,0,0,.531.255.662.662,0,0,0,.533-.27l7.469-9.971a.6.6,0,0,0-.479-.956l-2.673,0c-.826,0-1.627,0-2.427-.007Zm-19.512.005a.746.746,0,0,0-.6,1.193l7.085,9.46a.735.735,0,0,0,.591.3.763.763,0,0,0,.591-.283.738.738,0,0,0,.142-.625l-2.042-9.166a.96.96,0,0,0-.956-.883c-.813.006-1.617.007-2.447.007Zm17.916-11.01a.887.887,0,0,0-.733.281.956.956,0,0,0-.093.838c.51,2.105.991,4.175,1.43,6.151a1.028,1.028,0,0,0,1.11.9h.065c.308-.009.641-.013,1.05-.013l.75,0c.252,0,.5,0,.755,0h.415v-.007h.372l.783,0c.36,0,.721,0,1.081.009h.06a.911.911,0,0,0,.81-.335.942.942,0,0,0-.072-.9c-1.059-2.091-2.121-4.229-3.111-6.228a1.11,1.11,0,0,0-1.055-.7c-.622.008-1.223.012-1.825.012q-.88,0-1.759-.012Zm-14.4,8.159c.409,0,.742,0,1.05.013h.065a1.028,1.028,0,0,0,1.11-.9c.439-1.976.92-4.046,1.43-6.151a.955.955,0,0,0-.093-.838.887.887,0,0,0-.733-.281h-.032q-.88.012-1.76.012-.9,0-1.8-.012h0a1.118,1.118,0,0,0-1.075.7c-.931,1.879-2.015,4.064-3.111,6.228a.941.941,0,0,0-.072.9.91.91,0,0,0,.81.335h.06c.36-.007.72-.009,1.08-.009l.783,0h.372l.415.006c.252,0,.5,0,.755,0Zm7.6-8.153a.909.909,0,0,0-.95.786c-.425,1.852-.931,4.04-1.458,6.229a.984.984,0,0,0,.113.84,1,1,0,0,0,.817.306h.044c.335-.005.67-.007,1.005-.007l1.459,0,1.485,0c.358,0,.716,0,1.073.005h.031a.794.794,0,0,0,.879-1.1c-.505-2.082-.975-4.134-1.453-6.228a.946.946,0,0,0-.986-.841h-.043c-.312.009-.641.013-1.006.013q-.495,0-.99-.008Z" transform="translate(-922.209 -1361.284)" fill="#f6f6f6"/>
</svg>
